<?xml version="1.0" standalone="no"?>
<!DOCTYPE svg PUBLIC "-//W3C//DTD SVG 20010904//EN"
 "http://www.w3.org/TR/2001/REC-SVG-20010904/DTD/svg10.dtd">
<svg version="1.0" xmlns="http://www.w3.org/2000/svg"
 width="256.000000pt" height="256.000000pt" viewBox="0 0 256.000000 256.000000"
 preserveAspectRatio="xMidYMid meet">
<metadata>
Created by potrace 1.15, written by Peter Selinger 2001-2017
</metadata>
<g transform="translate(0.000000,256.000000) scale(0.100000,-0.100000)"
fill="#000000" stroke="none">
<path d="M1 1988 c1 -531 2 -567 15 -493 43 235 140 444 288 617 69 81 210
208 231 208 6 0 17 -12 24 -26 l12 -26 18 21 c10 11 23 21 30 21 6 0 11 4 11
9 0 5 9 7 19 4 10 -3 30 2 43 11 14 9 27 14 30 11 2 -3 25 -7 50 -10 38 -5 48
-2 72 20 15 14 33 25 41 25 7 0 16 8 20 19 10 32 56 24 93 -17 32 -36 32 -37
26 -9 -5 22 -3 26 10 21 9 -4 16 -1 16 6 0 8 9 11 25 8 17 -4 25 -1 25 8 0 8
7 14 15 14 8 0 15 7 15 15 0 24 18 17 34 -12 13 -24 15 -25 16 -8 1 18 3 17
21 -7 11 -15 26 -25 33 -22 7 3 18 -6 25 -20 8 -13 19 -22 26 -20 6 3 20 -7
31 -21 10 -14 26 -25 35 -25 9 0 19 -7 23 -15 8 -23 33 -18 40 8 l7 22 11 -22
c6 -13 18 -23 26 -23 10 0 12 -5 6 -17 -12 -25 -13 -127 -2 -134 5 -3 2 -14
-8 -23 -19 -19 -20 -47 -8 -178 8 -98 34 -113 82 -48 16 21 40 35 91 50 37 11
79 28 92 38 13 10 61 44 107 75 66 44 94 57 137 62 30 4 55 11 55 15 0 4 12
12 26 19 27 12 68 6 59 -9 -3 -5 8 -5 25 0 31 9 38 2 20 -16 -7 -7 -8 -19 -1
-36 5 -14 7 -29 3 -33 -7 -8 41 -2 91 10 17 5 27 3 27 -4 0 -6 -6 -11 -14 -11
-8 0 -16 -6 -19 -14 -4 -10 2 -16 21 -18 18 -2 27 -8 26 -20 -2 -17 13 -18 63
-3 15 5 24 -6 61 -77 27 -49 29 -57 15 -62 -9 -4 -20 -1 -25 6 -7 10 -9 9 -5
-2 4 -18 -16 -40 -37 -40 -8 0 -26 -10 -40 -22 -36 -34 -54 -48 -61 -48 -4 0
-20 -13 -37 -30 -16 -16 -36 -30 -44 -30 -9 0 -12 -5 -9 -11 4 -6 1 -9 -8 -7
-8 2 -25 -9 -38 -23 -29 -32 -36 -54 -14 -46 9 4 15 1 15 -8 0 -8 12 -18 28
-21 15 -4 31 -9 37 -12 22 -13 55 -8 135 23 113 43 191 67 198 61 2 -3 -1 -8
-9 -10 -8 -3 -52 -18 -99 -34 -47 -17 -96 -34 -110 -38 -14 -4 -36 -14 -49
-23 -38 -25 -180 -68 -194 -59 -8 5 -7 8 5 8 9 0 19 4 23 10 3 5 -10 8 -32 6
-25 -3 -39 -9 -41 -20 -2 -9 -8 -14 -13 -11 -5 4 -9 3 -9 -2 0 -4 27 -9 60
-10 33 -1 74 -10 90 -18 17 -9 35 -13 40 -10 5 3 15 -4 24 -16 8 -12 19 -18
25 -14 6 3 11 2 11 -4 0 -15 -41 -24 -53 -12 -15 15 -90 14 -140 -1 -22 -7
-55 -27 -73 -45 -20 -20 -43 -33 -58 -33 -14 0 -28 -5 -32 -11 -3 -6 -15 -9
-25 -6 -24 6 -40 -14 -41 -52 -1 -33 -7 -38 -25 -20 -8 8 -13 8 -18 -1 -5 -8
-10 -7 -18 4 -15 20 -57 10 -57 -13 0 -10 -3 -20 -6 -24 -9 -9 -69 21 -66 33
1 6 -11 3 -28 -6 -16 -10 -30 -22 -30 -26 0 -4 -7 -8 -15 -8 -9 0 -18 -6 -21
-14 -3 -9 -14 -11 -36 -7 -29 6 -31 10 -31 46 1 22 3 47 6 55 3 8 11 33 17 55
14 44 44 88 96 141 33 33 34 36 28 86 -8 59 -39 98 -77 98 -14 0 -30 7 -37 15
-7 9 -23 15 -34 13 -16 -2 -21 -10 -21 -33 0 -22 -11 -41 -42 -72 -41 -41 -63
-90 -63 -143 0 -14 -9 -36 -20 -50 -15 -20 -21 -23 -31 -12 -7 6 -18 12 -25
12 -16 0 -27 -64 -16 -87 22 -43 39 -112 35 -136 -4 -21 -1 -27 12 -27 11 0
15 -5 11 -15 -3 -8 -1 -15 4 -15 19 0 10 -39 -10 -45 -15 -5 -18 -12 -13 -35
4 -25 1 -31 -18 -40 -20 -8 -18 -9 12 -4 36 6 63 -11 42 -25 -6 -3 -13 -18
-16 -32 -5 -21 -3 -28 12 -32 17 -4 18 -8 7 -41 -6 -20 -14 -36 -18 -36 -5 0
-8 -9 -8 -20 0 -11 -5 -19 -12 -18 -6 2 -14 -6 -16 -17 -4 -17 -2 -18 12 -6
14 12 16 9 16 -27 0 -31 -4 -41 -20 -45 -12 -3 -20 -14 -20 -26 0 -11 -9 -35
-20 -53 -22 -36 -27 -98 -9 -98 7 0 27 9 45 21 18 11 42 19 52 17 10 -1 29 8
42 21 26 24 60 41 95 48 10 2 22 8 26 14 4 8 8 7 12 -2 5 -12 7 -12 15 0 7 9
12 10 16 2 10 -16 26 -4 26 19 0 27 20 36 27 11 3 -12 11 -21 18 -21 7 0 16
-7 19 -16 3 -8 11 -12 16 -9 8 5 7 11 -1 21 -9 11 -9 18 -2 25 8 8 13 5 18
-10 3 -12 13 -21 22 -21 8 0 13 6 10 13 -3 6 -8 20 -12 30 -5 12 -2 17 9 17 8
0 18 -11 22 -25 3 -14 10 -25 15 -25 5 0 6 -7 2 -16 -5 -13 -2 -15 15 -10 11
4 23 2 27 -4 3 -5 12 -10 18 -10 7 0 4 7 -6 14 -22 17 -7 30 26 21 20 -6 21
-5 5 8 -22 17 -12 30 13 17 11 -6 20 -6 23 -1 4 5 21 8 39 7 17 -2 46 2 64 8
l31 11 -22 17 c-20 15 -26 15 -51 2 -32 -17 -38 -17 -30 -4 3 6 -3 10 -15 10
-12 0 -19 -4 -15 -9 12 -20 -16 -21 -37 -1 -23 21 -23 21 -39 1 -17 -21 -31
-17 -42 13 -6 15 -3 18 18 14 30 -6 31 -4 4 21 l-22 20 77 -4 c51 -2 81 -9 92
-19 17 -17 54 -22 54 -7 0 5 -7 12 -16 15 -24 9 -10 19 15 11 12 -3 21 -13 21
-21 0 -14 55 -41 73 -36 5 1 6 -2 2 -8 -3 -6 4 -10 17 -10 13 0 31 -9 41 -20
25 -29 21 -35 -9 -15 -19 12 -25 13 -22 3 2 -7 14 -17 26 -23 23 -10 28 -30
13 -54 -7 -11 -10 -11 -17 0 -4 7 -3 14 4 17 7 2 9 8 6 13 -3 6 -12 5 -22 -3
-13 -11 -15 -10 -9 5 7 20 -3 23 -21 5 -9 -9 -12 -8 -12 6 0 9 -4 14 -10 11
-5 -3 -10 -1 -10 4 0 6 -14 11 -31 11 -20 0 -29 -4 -26 -12 2 -7 14 -12 26
-10 20 2 21 0 7 -13 -8 -8 -20 -15 -26 -15 -6 0 2 -14 19 -30 16 -17 28 -37
25 -44 -3 -9 3 -17 16 -21 17 -6 21 -13 18 -35 -2 -16 -1 -27 3 -25 17 11 17
-39 0 -54 -24 -21 -33 -58 -15 -65 26 -10 5 -33 -26 -28 -18 3 -30 0 -30 -7 0
-6 5 -11 11 -11 5 0 8 -4 4 -9 -3 -5 0 -13 6 -16 6 -4 -14 -22 -48 -43 -128
-78 -289 -137 -448 -166 -74 -13 -37 -14 493 -15 l572 -1 0 579 0 579 -47 11
c-27 5 -73 15 -103 20 -89 17 -98 21 -40 15 72 -6 151 -19 172 -29 17 -7 18
34 18 689 l0 696 -1280 0 -1280 0 1 -572z"/>
<path d="M475 1622 c-108 -12 -184 -58 -218 -133 -18 -41 -32 -81 -29 -91 1
-3 4 -21 7 -39 8 -42 21 -59 63 -76 24 -10 38 -11 46 -4 7 6 23 8 37 4 53 -14
116 -5 180 28 68 34 85 50 96 89 7 29 32 50 49 43 8 -3 14 7 16 29 3 37 20 41
30 6 6 -22 6 -22 7 3 1 30 -26 68 -69 99 -29 21 -47 27 -102 35 -15 2 -32 6
-38 10 -5 3 -10 1 -10 -5 0 -7 -6 -8 -17 -2 -10 4 -31 6 -48 4z"/>
<path d="M1036 1318 c-9 -12 -16 -28 -16 -36 0 -7 -14 -19 -30 -26 l-30 -12
22 -21 c27 -24 108 -30 169 -12 43 13 47 25 24 69 -31 61 -109 82 -139 38z"/>
<path d="M1 573 l-1 -573 573 1 c528 1 566 2 492 15 -268 48 -498 167 -690
359 -190 189 -312 424 -359 690 -13 73 -14 33 -15 -492z"/>
</g>
</svg>
